# xmcd
#
# Track frame offsets:
#	300
#	12917
#	22407
#	33125
#	52100
#	74900
#	88892
#	102640
#	111695
#	122432
#	137085
#	146425
#
# Disc length: 3377 seconds
#
# Revision: 0
# Processed by: cddbd v1.5.2PL0 Copyright (c) Steve Scherf et al.
# Submitted via: audiograbber 1.83.01
#
DISCID=bd0d2d0c
DTITLE=Frantic Flinstones - Champagne 4 All
DYEAR=2003
DGENRE=Rock and Roll
TTITLE0=Retarded
TTITLE1=Baby bent double
TTITLE2=T.r.i.p.s.
TTITLE3=Champagne 4 All!
TTITLE4=Watchin a porn -o- video
TTITLE5=Bugs Bunny
TTITLE6=Cannibal Joe
TTITLE7=Under the Bridge
TTITLE8=Prophet of Dome
TTITLE9=Chuck! -a- Luck!
TTITLE10=Baby Bong
TTITLE11=Bonus
EXTD=
EXTT0=
EXTT1=
EXTT2=
EXTT3=
EXTT4=
EXTT5=
EXTT6=
EXTT7=
EXTT8=
EXTT9=
EXTT10=
EXTT11=
PLAYORDER=
